# xmcd
#
# Track frame offsets:
#	150
#	11145
#	27281
#	41029
#	51586
#	69057
#	84064
#	100041
#	114427
#	131487
#	148046
#	164490
#	183197
#	195559
#	210890
#	231675
#	249529
#	264305
#	282304
#	301298
#	317295
#
# Disc length: 4474 seconds
#
# Revision: 0
# Processed by: cddbd v1.5.2PL0 Copyright (c) Steve Scherf et al.
# Submitted via: EZCDAudioConverter 3.1.0.1
#
DISCID=1b117815
DTITLE=Nu Urban Traxx Volume 231 US
DYEAR=2016
DGENRE=blues
TTITLE0=Zay Hilfigerrr and Zayion McCall - JuJu On That Beat (TZ Anthem)
TTITLE1=Alicia Keys ft. A$AP Rocky - Blended Family (What You Do For Love)
TTITLE2=D.R.A.M. - Cash Machine
TTITLE3=Fetty Wap - Make You Feel Good
TTITLE4=Jeremih ft. Stefflon Don, Krept and Konan - London
TTITLE5=Jeezy ft. Bankroll Fresh - All There
TTITLE6=John Legend - Love Me Now
TTITLE7=Justine Skye ft. WizKid - U Don't Know
TTITLE8=Bruno Mars - 24k Magic
TTITLE9=Bibi Bourelly - Ballin
TTITLE10=Khalid - Location
TTITLE11=Pusha T ft. Desiigner and Ty Dolla $ign - Circles
TTITLE12=Jidenna - Long Live The Chief
TTITLE13=Partynextdoor - Not Nice
TTITLE14=Gourdan Banks ft. Chris Brown and Bryson Tiller - Keep You In Mind [R
TTITLE14=emix]
TTITLE15=Major - Why I Love You
TTITLE16=Kranium ft. Tory Lanez - We Can
TTITLE17=Anthony Hamilton ft. The HamilTones - What I'm Feeling
TTITLE18=Solange - Cranes In The Sky
TTITLE19=Twista ft. Jeremih - Next To You
TTITLE20=Tyga ft. Desiigner - Gucci Snakes
EXTD=
EXTT0=
EXTT1=
EXTT2=
EXTT3=
EXTT4=
EXTT5=
EXTT6=
EXTT7=
EXTT8=
EXTT9=
EXTT10=
EXTT11=
EXTT12=
EXTT13=
EXTT14=
EXTT15=
EXTT16=
EXTT17=
EXTT18=
EXTT19=
EXTT20=
PLAYORDER=
